<svg xmlns="http://www.w3.org/2000/svg" xmlns:xlink="http://www.w3.org/1999/xlink" width="2000" zoomAndPan="magnify" viewBox="0 0 1500 1499.999933" height="2000" preserveAspectRatio="xMidYMid meet" version="1.0"><path fill="#f8f5ea" d="M 0 0 L 1515 0 L 1515 1499.996094 L 0 1499.996094 Z M 0 0 " fill-opacity="1" fill-rule="nonzero"/><path fill="#040504" d="M 1162.878906 140.535156 L 1173.238281 140.535156 L 1171.757812 149.410156 L 1167.320312 180.476562 L 1162.878906 199.707031 L 1159.921875 214.5 L 1156.960938 221.894531 L 1155.484375 223.375 L 1151.042969 244.085938 L 1148.085938 281.066406 L 1145.125 286.984375 L 1143.648438 298.816406 L 1140.6875 303.253906 L 1131.8125 344.675781 L 1125.894531 368.34375 L 1121.453125 399.410156 L 1118.496094 399.410156 L 1118.496094 402.367188 L 1111.097656 400.886719 L 1102.222656 392.011719 L 1097.78125 390.535156 L 1097.78125 387.574219 L 1094.824219 387.574219 L 1090.386719 380.179688 L 1087.425781 377.21875 L 1080.027344 374.261719 L 1059.316406 353.550781 L 1059.316406 350.59375 L 1053.398438 353.550781 L 1046 360.949219 L 1031.207031 372.78125 L 1017.890625 381.65625 L 997.175781 392.011719 L 991.257812 397.929688 L 966.109375 405.328125 L 946.875 406.804688 L 932.078125 411.242188 L 608.070312 412.722656 L 591.796875 417.160156 L 578.480469 424.558594 L 572.5625 426.035156 L 569.605469 431.953125 L 554.808594 442.308594 L 540.015625 458.582031 L 529.65625 479.289062 L 522.261719 498.519531 L 520.78125 513.3125 L 519.300781 514.792969 L 519.300781 550.296875 L 520.78125 551.777344 L 520.78125 563.609375 L 525.21875 565.089844 L 528.179688 575.445312 L 534.097656 590.238281 L 542.972656 605.03125 L 550.371094 613.90625 L 550.371094 616.863281 L 556.289062 619.824219 L 562.207031 627.21875 L 578.480469 637.574219 L 597.714844 643.492188 L 605.113281 646.449219 L 628.785156 646.449219 L 642.097656 643.492188 L 643.578125 639.054688 L 655.414062 633.136719 L 670.210938 618.34375 L 679.085938 610.945312 L 683.523438 603.550781 L 687.964844 603.550781 L 689.441406 596.152344 L 692.402344 593.195312 L 695.359375 585.800781 L 701.277344 578.402344 L 704.238281 578.402344 L 707.195312 572.484375 L 724.949219 554.734375 L 738.265625 544.378906 L 750.101562 539.941406 L 761.9375 531.066406 L 773.773438 525.148438 L 785.609375 525.148438 L 785.609375 522.191406 L 806.324219 516.273438 L 813.71875 513.3125 L 868.460938 513.3125 L 889.175781 516.273438 L 895.09375 519.230469 L 912.847656 523.667969 L 918.765625 526.628906 L 930.601562 529.585938 L 943.914062 535.503906 L 943.914062 538.460938 L 949.832031 541.421875 L 957.230469 545.859375 L 972.027344 556.214844 L 979.421875 563.609375 L 986.820312 568.046875 L 994.21875 573.964844 L 998.65625 578.402344 L 1001.617188 579.882812 L 1001.617188 584.320312 L 1006.054688 585.800781 L 1011.972656 596.152344 L 1020.847656 603.550781 L 1025.289062 613.90625 L 1032.683594 625.738281 L 1041.5625 644.96875 L 1046 655.324219 L 1048.960938 667.160156 L 1053.398438 678.996094 L 1059.316406 717.457031 L 1059.316406 764.792969 L 1056.355469 781.066406 L 1054.878906 801.773438 L 1051.917969 801.773438 L 1050.4375 812.128906 L 1040.082031 841.714844 L 1034.164062 852.070312 L 1029.726562 863.90625 L 1023.808594 877.21875 L 1010.492188 893.492188 L 1001.617188 905.324219 L 998.65625 911.242188 L 982.382812 924.554688 L 969.066406 936.390625 L 955.75 945.265625 L 942.4375 952.664062 L 935.039062 954.140625 L 935.039062 957.101562 L 924.683594 960.058594 L 909.886719 967.453125 L 896.570312 971.894531 L 869.941406 977.808594 L 858.105469 979.289062 L 409.820312 979.289062 L 386.148438 974.851562 L 377.269531 968.933594 L 365.433594 957.101562 L 365.433594 952.664062 L 359.515625 951.183594 L 353.597656 937.871094 L 353.597656 908.285156 L 359.515625 894.96875 L 366.914062 889.054688 L 375.792969 878.699219 L 387.628906 871.300781 L 405.378906 868.34375 L 846.269531 866.863281 L 864.023438 862.425781 L 874.378906 856.507812 L 884.734375 853.550781 L 895.09375 847.632812 L 905.449219 838.757812 L 908.40625 838.757812 L 911.367188 832.839844 L 926.160156 816.566406 L 933.558594 798.816406 L 937.996094 789.941406 L 942.4375 776.628906 L 943.914062 761.835938 L 946.875 761.835938 L 945.394531 729.289062 L 942.4375 708.578125 L 939.476562 708.578125 L 936.519531 702.664062 L 933.558594 692.308594 L 927.640625 678.996094 L 918.765625 665.679688 L 918.765625 661.242188 L 912.847656 659.761719 L 906.929688 653.847656 L 906.929688 650.886719 L 901.011719 647.929688 L 899.53125 643.492188 L 893.613281 642.011719 L 878.816406 634.617188 L 871.421875 630.179688 L 859.585938 627.21875 L 828.515625 627.21875 L 819.636719 633.136719 L 807.800781 637.574219 L 790.046875 653.847656 L 776.734375 670.117188 L 756.019531 695.265625 L 742.703125 710.058594 L 729.390625 723.371094 L 705.71875 739.644531 L 687.964844 748.519531 L 679.085938 748.519531 L 679.085938 751.480469 L 667.25 755.917969 L 653.933594 758.875 L 634.703125 761.835938 L 593.277344 761.835938 L 569.605469 758.875 L 556.289062 755.917969 L 556.289062 752.957031 L 545.933594 751.480469 L 531.136719 745.5625 L 523.738281 739.644531 L 522.261719 736.6875 L 514.863281 733.726562 L 507.464844 729.289062 L 500.066406 723.371094 L 492.671875 718.933594 L 471.957031 701.183594 L 463.082031 692.308594 L 463.082031 687.871094 L 457.164062 686.390625 L 448.285156 673.078125 L 448.285156 668.640625 L 445.328125 668.640625 L 439.410156 661.242188 L 430.53125 643.492188 L 430.53125 640.53125 L 426.09375 639.054688 L 417.214844 615.386719 L 412.777344 602.070312 L 408.339844 578.402344 L 405.378906 571.007812 L 402.421875 545.859375 L 402.421875 516.273438 L 405.378906 492.605469 L 412.777344 460.058594 L 415.738281 460.058594 L 417.214844 449.703125 L 424.613281 431.953125 L 433.492188 411.242188 L 442.367188 399.410156 L 448.285156 390.535156 L 452.722656 384.617188 L 457.164062 377.21875 L 483.792969 350.59375 L 492.671875 343.195312 L 500.066406 340.238281 L 511.902344 332.839844 L 519.300781 325.445312 L 525.21875 323.964844 L 525.21875 321.007812 L 540.015625 316.570312 L 551.851562 310.652344 L 565.164062 306.214844 L 587.359375 301.777344 L 602.152344 298.816406 L 608.070312 297.339844 L 915.804688 295.859375 L 942.4375 292.902344 L 957.230469 282.546875 L 967.585938 273.667969 L 967.585938 263.316406 L 948.355469 242.605469 L 940.957031 233.730469 L 930.601562 227.8125 L 924.683594 218.9375 L 917.285156 213.019531 L 917.285156 205.621094 L 985.339844 187.871094 L 997.175781 184.914062 L 1016.410156 180.476562 L 1029.726562 177.515625 L 1059.316406 168.640625 L 1072.632812 165.683594 L 1081.507812 161.242188 L 1108.140625 155.328125 L 1131.8125 149.410156 L 1148.085938 146.453125 Z M 1162.878906 140.535156 " fill-opacity="1" fill-rule="nonzero"/><path fill="#141412" d="M 991.257812 1142.011719 L 1028.246094 1142.011719 L 1028.246094 1356.507812 L 994.21875 1356.507812 L 992.738281 1355.027344 L 991.257812 1344.671875 L 985.339844 1347.632812 L 977.945312 1349.109375 L 977.945312 1352.070312 L 967.585938 1356.507812 L 966.109375 1357.988281 L 954.273438 1359.464844 L 927.640625 1359.464844 L 912.847656 1355.027344 L 896.570312 1344.671875 L 881.777344 1331.359375 L 874.378906 1322.484375 L 866.980469 1301.773438 L 866.980469 1258.875 L 874.378906 1236.683594 L 881.777344 1226.328125 L 884.734375 1226.328125 L 887.695312 1220.414062 L 890.652344 1217.453125 L 901.011719 1213.015625 L 909.886719 1207.097656 L 929.121094 1204.140625 L 961.667969 1204.140625 L 979.421875 1211.539062 L 989.78125 1215.976562 L 989.78125 1143.488281 Z M 991.257812 1142.011719 " fill-opacity="1" fill-rule="nonzero"/><path fill="#0e0e0d" d="M 685.003906 1202.660156 L 716.074219 1202.660156 L 733.828125 1207.097656 L 748.621094 1214.496094 L 766.375 1230.769531 L 773.773438 1241.121094 L 779.691406 1255.914062 L 781.171875 1261.832031 L 781.171875 1298.816406 L 778.210938 1315.085938 L 773.773438 1315.085938 L 772.292969 1321.003906 L 766.375 1331.359375 L 756.019531 1341.714844 L 748.621094 1349.109375 L 733.828125 1353.546875 L 720.511719 1359.464844 L 687.964844 1359.464844 L 670.210938 1356.507812 L 655.414062 1347.632812 L 642.097656 1337.277344 L 633.222656 1326.921875 L 628.785156 1319.523438 L 624.34375 1309.171875 L 621.386719 1301.773438 L 619.90625 1292.898438 L 619.90625 1263.3125 L 625.824219 1244.082031 L 634.703125 1230.769531 L 650.976562 1217.453125 L 658.375 1211.539062 L 667.25 1208.578125 Z M 511.902344 1201.183594 L 537.054688 1201.183594 L 554.808594 1205.621094 L 569.605469 1210.058594 L 571.082031 1214.496094 L 578.480469 1215.976562 L 590.316406 1227.808594 L 597.714844 1236.683594 L 606.589844 1263.3125 L 606.589844 1292.898438 L 602.152344 1309.171875 L 600.671875 1319.523438 L 597.714844 1319.523438 L 594.753906 1325.441406 L 585.878906 1337.277344 L 574.042969 1344.671875 L 563.6875 1349.109375 L 562.207031 1352.070312 L 556.289062 1355.027344 L 541.492188 1357.988281 L 507.464844 1357.988281 L 486.753906 1352.070312 L 469 1338.753906 L 455.683594 1323.964844 L 452.722656 1316.566406 L 446.804688 1286.980469 L 446.804688 1266.269531 L 449.765625 1251.476562 L 458.640625 1233.726562 L 470.476562 1221.890625 L 479.355469 1214.496094 L 489.710938 1211.539062 L 489.710938 1207.097656 L 501.546875 1202.660156 Z M 511.902344 1201.183594 " fill-opacity="1" fill-rule="nonzero"/><path fill="#111110" d="M 1119.976562 1201.183594 L 1140.6875 1201.183594 L 1158.441406 1205.621094 L 1170.277344 1210.058594 L 1176.195312 1215.976562 L 1188.03125 1226.328125 L 1196.910156 1236.683594 L 1198.386719 1241.121094 L 1201.347656 1242.601562 L 1202.828125 1252.957031 L 1205.785156 1263.3125 L 1205.785156 1289.9375 L 1204.304688 1291.417969 L 1093.34375 1292.898438 L 1091.863281 1303.253906 L 1096.304688 1304.730469 L 1100.742188 1312.128906 L 1109.617188 1319.523438 L 1109.617188 1322.484375 L 1122.933594 1325.441406 L 1154.003906 1325.441406 L 1162.878906 1321.003906 L 1174.714844 1313.609375 L 1182.113281 1315.085938 L 1189.511719 1321.003906 L 1196.910156 1328.402344 L 1196.910156 1337.277344 L 1182.113281 1347.632812 L 1167.320312 1355.027344 L 1149.566406 1359.464844 L 1115.535156 1359.464844 L 1102.222656 1356.507812 L 1094.824219 1353.546875 L 1094.824219 1350.589844 L 1090.386719 1349.109375 L 1087.425781 1344.671875 L 1077.070312 1340.234375 L 1063.753906 1323.964844 L 1060.796875 1316.566406 L 1056.355469 1310.648438 L 1056.355469 1306.210938 L 1053.398438 1306.210938 L 1051.917969 1301.773438 L 1051.917969 1258.875 L 1053.398438 1255.914062 L 1056.355469 1255.914062 L 1059.316406 1242.601562 L 1063.753906 1241.121094 L 1065.234375 1233.726562 L 1069.671875 1229.289062 L 1074.109375 1221.890625 L 1081.507812 1214.496094 L 1094.824219 1210.058594 L 1100.742188 1207.097656 L 1105.179688 1207.097656 L 1105.179688 1204.140625 Z M 1119.976562 1201.183594 " fill-opacity="1" fill-rule="nonzero"/><path fill="#10100f" d="M 1284.199219 1201.183594 L 1309.351562 1201.183594 L 1327.105469 1205.621094 L 1340.417969 1211.539062 L 1355.214844 1226.328125 L 1362.613281 1238.164062 L 1364.089844 1242.601562 L 1370.007812 1248.519531 L 1371.488281 1260.355469 L 1374.449219 1260.355469 L 1374.449219 1289.9375 L 1254.609375 1289.9375 L 1254.609375 1297.335938 L 1257.566406 1297.335938 L 1257.566406 1306.210938 L 1260.527344 1306.210938 L 1260.527344 1309.171875 L 1266.445312 1312.128906 L 1276.800781 1321.003906 L 1287.15625 1325.441406 L 1315.269531 1325.441406 L 1330.0625 1323.964844 L 1330.0625 1321.003906 L 1341.898438 1312.128906 L 1346.335938 1312.128906 L 1353.734375 1319.523438 L 1362.613281 1329.878906 L 1361.132812 1338.753906 L 1353.734375 1344.671875 L 1340.417969 1352.070312 L 1318.226562 1357.988281 L 1291.597656 1357.988281 L 1272.363281 1355.027344 L 1254.609375 1347.632812 L 1254.609375 1344.671875 L 1245.730469 1341.714844 L 1229.457031 1323.964844 L 1225.019531 1313.609375 L 1220.582031 1304.730469 L 1217.621094 1292.898438 L 1217.621094 1263.3125 L 1225.019531 1242.601562 L 1229.457031 1233.726562 L 1242.773438 1218.933594 L 1254.609375 1210.058594 L 1273.84375 1202.660156 Z M 1284.199219 1201.183594 " fill-opacity="1" fill-rule="nonzero"/><path fill="#121211" d="M 297.378906 1142.011719 L 332.886719 1142.011719 L 334.367188 1143.488281 L 334.367188 1266.269531 L 346.203125 1255.914062 L 380.230469 1221.890625 L 387.628906 1218.933594 L 399.464844 1207.097656 L 400.941406 1204.140625 L 440.886719 1204.140625 L 439.410156 1211.539062 L 387.628906 1263.3125 L 384.667969 1263.3125 L 390.585938 1275.144531 L 395.023438 1279.585938 L 397.984375 1286.980469 L 403.902344 1292.898438 L 408.339844 1300.292969 L 414.257812 1307.691406 L 420.175781 1312.128906 L 424.613281 1319.523438 L 427.574219 1321.003906 L 432.011719 1328.402344 L 448.285156 1349.109375 L 448.285156 1355.027344 L 406.859375 1355.027344 L 390.585938 1337.277344 L 381.710938 1322.484375 L 377.269531 1318.046875 L 372.832031 1310.648438 L 358.039062 1295.855469 L 350.640625 1298.816406 L 338.804688 1309.171875 L 335.84375 1312.128906 L 334.367188 1353.546875 L 331.40625 1356.507812 L 295.898438 1356.507812 L 295.898438 1143.488281 Z M 297.378906 1142.011719 " fill-opacity="1" fill-rule="nonzero"/><path fill="#0c0c0b" d="M 205.648438 1202.660156 L 223.402344 1202.660156 L 242.636719 1205.621094 L 255.953125 1208.578125 L 269.269531 1214.496094 L 267.789062 1224.851562 L 261.871094 1235.207031 L 260.390625 1241.121094 L 251.515625 1241.121094 L 232.28125 1233.726562 L 198.253906 1233.726562 L 193.8125 1236.683594 L 189.375 1236.683594 L 187.894531 1242.601562 L 187.894531 1252.957031 L 196.773438 1260.355469 L 208.609375 1263.3125 L 223.402344 1264.792969 L 245.597656 1270.707031 L 260.390625 1276.625 L 272.226562 1288.460938 L 275.1875 1294.378906 L 275.1875 1322.484375 L 267.789062 1337.277344 L 254.472656 1346.152344 L 238.199219 1353.546875 L 224.882812 1356.507812 L 195.292969 1356.507812 L 179.019531 1355.027344 L 176.058594 1353.546875 L 162.746094 1352.070312 L 161.265625 1347.632812 L 147.949219 1343.195312 L 146.46875 1335.796875 L 147.949219 1326.921875 L 150.910156 1325.441406 L 153.867188 1316.566406 L 161.265625 1315.085938 L 174.582031 1321.003906 L 184.9375 1323.964844 L 190.855469 1326.921875 L 202.691406 1328.402344 L 221.925781 1328.402344 L 235.238281 1323.964844 L 239.679688 1319.523438 L 238.199219 1304.730469 L 229.320312 1300.292969 L 229.320312 1297.335938 L 216.007812 1297.335938 L 213.046875 1295.855469 L 195.292969 1292.898438 L 170.140625 1285.5 L 156.828125 1276.625 L 152.386719 1272.1875 L 147.949219 1263.3125 L 147.949219 1239.644531 L 155.347656 1224.851562 L 165.703125 1214.496094 L 177.539062 1208.578125 L 189.375 1204.140625 Z M 205.648438 1202.660156 " fill-opacity="1" fill-rule="nonzero"/><path fill="#0b0b0a" d="M 807.800781 1143.488281 L 843.308594 1143.488281 L 843.308594 1355.027344 L 806.324219 1355.027344 L 806.324219 1144.96875 Z M 807.800781 1143.488281 " fill-opacity="1" fill-rule="nonzero"/><path fill="#f4f1e7" d="M 692.402344 1233.726562 L 713.113281 1233.726562 L 720.511719 1236.683594 L 732.347656 1245.5625 L 741.226562 1263.3125 L 744.183594 1266.269531 L 744.183594 1294.378906 L 738.265625 1309.171875 L 727.910156 1318.046875 L 724.949219 1318.046875 L 721.992188 1323.964844 L 713.113281 1326.921875 L 690.921875 1326.921875 L 674.648438 1318.046875 L 665.769531 1310.648438 L 659.851562 1298.816406 L 658.375 1292.898438 L 658.375 1263.3125 L 661.332031 1263.3125 L 665.769531 1250 L 682.046875 1236.683594 Z M 692.402344 1233.726562 " fill-opacity="1" fill-rule="nonzero"/><path fill="#f6f4ec" d="M 514.863281 1232.246094 L 538.535156 1232.246094 L 538.535156 1235.207031 L 547.410156 1238.164062 L 556.289062 1244.082031 L 562.207031 1251.476562 L 563.6875 1258.875 L 566.644531 1258.875 L 569.605469 1270.707031 L 569.605469 1292.898438 L 562.207031 1307.691406 L 548.890625 1322.484375 L 538.535156 1325.441406 L 517.820312 1325.441406 L 501.546875 1319.523438 L 492.671875 1309.171875 L 489.710938 1303.253906 L 486.753906 1301.773438 L 483.792969 1292.898438 L 483.792969 1264.792969 L 491.191406 1250 L 503.027344 1239.644531 L 505.984375 1235.207031 Z M 514.863281 1232.246094 " fill-opacity="1" fill-rule="nonzero"/><path fill="#f6f4ed" d="M 942.4375 1233.726562 L 957.230469 1233.726562 L 961.667969 1236.683594 L 974.984375 1241.121094 L 980.902344 1244.082031 L 986.820312 1257.394531 L 989.78125 1267.75 L 989.78125 1294.378906 L 986.820312 1304.730469 L 980.902344 1310.648438 L 974.984375 1318.046875 L 964.628906 1323.964844 L 961.667969 1325.441406 L 936.519531 1325.441406 L 921.722656 1319.523438 L 909.886719 1307.691406 L 906.929688 1298.816406 L 905.449219 1286.980469 L 905.449219 1267.75 L 912.847656 1250 L 930.601562 1236.683594 Z M 942.4375 1233.726562 " fill-opacity="1" fill-rule="nonzero"/><path fill="#f2f1ea" d="M 1121.453125 1230.769531 L 1139.207031 1230.769531 L 1152.523438 1235.207031 L 1159.921875 1242.601562 L 1168.796875 1252.957031 L 1170.277344 1264.792969 L 1090.386719 1264.792969 L 1091.863281 1258.875 L 1099.261719 1244.082031 L 1114.058594 1232.246094 Z M 1121.453125 1230.769531 " fill-opacity="1" fill-rule="nonzero"/><path fill="#f2f0ea" d="M 1287.15625 1230.769531 L 1304.910156 1230.769531 L 1312.308594 1233.726562 L 1312.308594 1236.683594 L 1319.707031 1236.683594 L 1330.0625 1248.519531 L 1335.980469 1260.355469 L 1335.980469 1264.792969 L 1257.566406 1264.792969 L 1259.046875 1252.957031 L 1264.964844 1247.039062 L 1269.402344 1239.644531 L 1273.84375 1235.207031 Z M 1287.15625 1230.769531 " fill-opacity="1" fill-rule="nonzero"/><path fill="#989992" d="M 378.75 970.414062 L 386.148438 973.371094 L 409.820312 977.808594 L 846.269531 979.289062 L 846.269531 982.246094 L 837.390625 983.726562 L 415.738281 983.726562 L 402.421875 982.246094 L 384.667969 976.332031 L 378.75 973.371094 Z M 378.75 970.414062 " fill-opacity="1" fill-rule="nonzero"/></svg>