<svg xmlns="http://www.w3.org/2000/svg" xmlns:xlink="http://www.w3.org/1999/xlink" width="2000" zoomAndPan="magnify" viewBox="0 0 1500 1499.999933" height="2000" preserveAspectRatio="xMidYMid meet" version="1.0"><defs><clipPath id="96de5d127d"><path d="M 2.199219 0 L 1499.945312 0 L 1499.945312 1500 L 2.199219 1500 Z M 2.199219 0 " clip-rule="nonzero"/></clipPath></defs><g clip-path="url(#96de5d127d)"><path fill="#f7f6ec" d="M 2.199219 0.00390625 L 1499.945312 0.00390625 L 1499.945312 1502.246094 L 2.199219 1502.246094 Z M 2.199219 0.00390625 " fill-opacity="1" fill-rule="nonzero"/><path fill="#f8f6ec" d="M 2.199219 0.00390625 L 1499.945312 0.00390625 L 1499.945312 1502.246094 L 2.199219 1502.246094 Z M 388.003906 171.644531 L 367.464844 176.046875 L 366 178.980469 L 348.394531 181.914062 L 342.527344 184.847656 L 327.859375 187.78125 L 314.65625 193.652344 L 305.855469 198.050781 L 297.054688 203.921875 L 289.71875 206.855469 L 282.382812 212.722656 L 269.179688 220.058594 L 260.378906 225.925781 L 253.042969 233.261719 L 241.308594 243.53125 L 231.039062 255.265625 L 222.238281 265.535156 L 216.371094 272.871094 L 211.96875 283.140625 L 198.769531 299.277344 L 194.367188 308.082031 L 188.5 328.617188 L 182.632812 343.289062 L 176.761719 368.230469 L 173.828125 388.765625 L 173.828125 1123.753906 L 178.230469 1150.160156 L 185.566406 1161.894531 L 188.5 1176.566406 L 191.433594 1176.566406 L 194.367188 1189.769531 L 200.234375 1204.4375 L 206.101562 1211.773438 L 210.503906 1219.109375 L 211.96875 1224.976562 L 214.902344 1224.976562 L 214.902344 1229.378906 L 222.238281 1236.714844 L 228.105469 1244.050781 L 233.972656 1254.316406 L 250.109375 1270.457031 L 254.511719 1276.324219 L 261.847656 1280.726562 L 288.25 1301.261719 L 297.054688 1304.199219 L 313.1875 1313 L 323.457031 1315.933594 L 343.996094 1323.269531 L 371.867188 1330.605469 L 392.40625 1332.070312 L 1127.34375 1332.070312 L 1155.214844 1327.671875 L 1169.882812 1321.800781 L 1183.085938 1315.933594 L 1199.222656 1313 L 1203.625 1308.597656 L 1210.960938 1304.199219 L 1222.695312 1295.394531 L 1235.898438 1286.59375 L 1256.433594 1268.988281 L 1275.503906 1249.917969 L 1293.109375 1224.976562 L 1298.976562 1219.109375 L 1306.308594 1205.90625 L 1313.644531 1188.300781 L 1316.578125 1186.835938 L 1331.25 1145.757812 L 1334.183594 1125.21875 L 1334.183594 404.90625 L 1332.714844 388.765625 L 1331.25 387.300781 L 1329.78125 363.828125 L 1322.445312 341.820312 L 1319.511719 328.617188 L 1316.578125 328.617188 L 1315.113281 319.816406 L 1310.710938 318.347656 L 1309.246094 312.480469 L 1306.308594 312.480469 L 1304.84375 303.679688 L 1297.507812 290.476562 L 1287.238281 274.339844 L 1284.304688 267.003906 L 1275.503906 256.734375 L 1269.636719 246.464844 L 1257.902344 234.726562 L 1243.230469 222.992188 L 1232.964844 215.65625 L 1225.628906 212.722656 L 1215.359375 205.386719 L 1199.222656 198.050781 L 1190.421875 195.117188 L 1177.21875 189.25 L 1174.285156 189.25 L 1172.820312 183.382812 L 1150.8125 177.515625 L 1140.546875 173.113281 L 1099.472656 171.644531 Z M 388.003906 171.644531 " fill-opacity="1" fill-rule="nonzero"/></g><path fill="#4a9693" d="M 1136.144531 352.089844 L 1142.011719 352.089844 L 1139.078125 382.898438 L 1136.144531 382.898438 L 1134.679688 407.839844 L 1131.746094 429.84375 L 1130.277344 432.777344 L 1128.808594 448.914062 L 1122.941406 473.855469 L 1120.007812 473.855469 L 1118.542969 488.527344 L 1117.074219 492.925781 L 1115.609375 514.933594 L 1109.738281 532.535156 L 1106.804688 532.535156 L 1105.339844 548.675781 L 1103.871094 550.140625 L 1098.003906 586.816406 L 1095.070312 597.085938 L 1087.734375 595.617188 L 1077.46875 583.882812 L 1064.265625 569.210938 L 1059.863281 564.8125 L 1049.59375 560.410156 L 1049.59375 557.476562 L 1043.726562 556.007812 L 1037.859375 550.140625 L 1030.523438 550.140625 L 1020.257812 561.878906 L 1007.054688 573.613281 L 998.253906 580.949219 L 987.984375 583.882812 L 986.515625 586.816406 L 974.78125 591.21875 L 968.914062 592.683594 L 964.511719 597.085938 L 941.042969 601.488281 L 929.304688 604.421875 L 621.246094 605.886719 L 603.644531 608.824219 L 593.375 611.757812 L 577.238281 619.089844 L 561.101562 630.828125 L 550.835938 641.097656 L 540.566406 655.769531 L 537.632812 660.167969 L 534.699219 671.90625 L 528.832031 683.640625 L 525.894531 699.777344 L 525.894531 737.921875 L 533.230469 761.394531 L 539.097656 773.128906 L 544.964844 781.933594 L 555.234375 790.734375 L 559.636719 798.070312 L 574.304688 811.273438 L 581.640625 815.675781 L 593.375 820.074219 L 602.175781 824.476562 L 631.515625 824.476562 L 646.1875 820.074219 L 665.257812 802.472656 L 675.523438 793.667969 L 684.328125 779 L 691.660156 771.664062 L 697.527344 764.328125 L 704.863281 756.992188 L 716.597656 743.789062 L 725.402344 736.453125 L 729.800781 734.988281 L 734.203125 730.585938 L 747.40625 721.785156 L 757.671875 717.382812 L 770.875 711.515625 L 794.347656 702.710938 L 809.015625 701.246094 L 866.226562 701.246094 L 879.429688 705.648438 L 899.96875 708.582031 L 914.636719 712.980469 L 929.304688 718.851562 L 930.773438 721.785156 L 938.109375 724.71875 L 938.109375 727.652344 L 945.441406 730.585938 L 952.777344 737.921875 L 965.980469 748.191406 L 982.117188 761.394531 L 986.515625 765.796875 L 990.917969 773.128906 L 998.253906 783.398438 L 1008.519531 792.203125 L 1012.921875 796.601562 L 1015.855469 805.40625 L 1020.257812 811.273438 L 1026.125 827.410156 L 1029.058594 834.746094 L 1031.992188 843.546875 L 1037.859375 867.019531 L 1040.792969 889.027344 L 1042.261719 891.960938 L 1042.261719 935.972656 L 1040.792969 956.511719 L 1037.859375 956.511719 L 1037.859375 968.246094 L 1031.992188 987.316406 L 1026.125 999.054688 L 1021.722656 1012.257812 L 1017.324219 1025.460938 L 1012.921875 1026.925781 L 1011.453125 1031.328125 L 1008.519531 1032.796875 L 1005.585938 1040.132812 L 1002.652344 1050.398438 L 995.316406 1057.734375 L 982.117188 1072.40625 L 971.847656 1084.140625 L 952.777344 1100.28125 L 942.507812 1104.679688 L 938.109375 1106.148438 L 935.171875 1112.015625 L 917.570312 1119.351562 L 910.234375 1125.21875 L 898.5 1131.085938 L 886.765625 1132.554688 L 877.960938 1135.488281 L 864.761719 1138.421875 L 850.089844 1139.890625 L 415.875 1139.890625 L 405.605469 1138.421875 L 402.671875 1135.488281 L 390.9375 1131.085938 L 383.601562 1122.285156 L 377.734375 1116.417969 L 370.398438 1097.34375 L 370.398438 1076.808594 L 373.335938 1076.808594 L 374.800781 1065.070312 L 380.667969 1057.734375 L 385.070312 1050.398438 L 392.40625 1043.066406 L 407.074219 1037.195312 L 408.539062 1035.730469 L 842.757812 1034.261719 L 861.828125 1031.328125 L 861.828125 1028.394531 L 870.628906 1023.992188 L 877.960938 1019.59375 L 885.296875 1016.660156 L 902.902344 999.054688 L 910.234375 991.71875 L 914.636719 985.851562 L 917.570312 978.515625 L 921.972656 972.648438 L 924.90625 963.84375 L 927.839844 949.175781 L 929.304688 946.242188 L 929.304688 890.492188 L 926.371094 872.890625 L 921.972656 871.421875 L 914.636719 856.75 L 910.234375 846.480469 L 899.96875 837.679688 L 897.03125 831.8125 L 889.699219 827.410156 L 882.363281 820.074219 L 875.027344 814.207031 L 861.828125 809.804688 L 848.625 806.871094 L 814.882812 806.871094 L 814.882812 809.804688 L 803.148438 815.675781 L 785.546875 828.878906 L 769.410156 847.949219 L 759.140625 861.152344 L 756.207031 862.621094 L 753.273438 869.953125 L 743.003906 881.691406 L 741.535156 886.09375 L 729.800781 896.363281 L 718.066406 905.164062 L 715.132812 909.566406 L 709.265625 909.566406 L 709.265625 912.5 L 704.863281 912.5 L 704.863281 915.433594 L 690.195312 918.367188 L 678.457031 924.234375 L 654.988281 931.570312 L 647.652344 933.039062 L 597.777344 933.039062 L 571.371094 928.636719 L 571.371094 925.703125 L 558.167969 924.234375 L 544.964844 918.367188 L 544.964844 915.433594 L 539.097656 913.964844 L 530.296875 911.03125 L 528.832031 908.097656 L 518.5625 903.695312 L 503.890625 890.492188 L 492.15625 881.691406 L 480.421875 868.488281 L 480.421875 865.554688 L 474.554688 864.085938 L 465.75 853.816406 L 458.417969 840.613281 L 452.550781 831.8125 L 452.550781 828.878906 L 449.613281 828.878906 L 442.28125 817.140625 L 437.878906 802.472656 L 432.011719 787.800781 L 430.546875 786.332031 L 426.144531 762.859375 L 421.742188 751.125 L 421.742188 683.640625 L 427.609375 660.167969 L 429.078125 645.5 L 434.945312 630.828125 L 437.878906 629.359375 L 445.214844 613.222656 L 449.613281 602.953125 L 455.484375 597.085938 L 459.882812 588.285156 L 467.21875 576.546875 L 476.019531 569.210938 L 486.289062 557.476562 L 500.957031 544.273438 L 514.160156 535.46875 L 527.363281 525.203125 L 534.699219 517.867188 L 549.367188 512 L 574.304688 504.664062 L 578.707031 504.664062 L 578.707031 501.730469 L 605.109375 495.859375 L 897.03125 495.859375 L 930.773438 492.925781 L 933.707031 489.992188 L 941.042969 487.058594 L 948.375 479.722656 L 955.710938 472.386719 L 957.179688 465.054688 L 951.308594 462.117188 L 942.507812 456.25 L 924.90625 437.179688 L 916.101562 431.3125 L 905.835938 421.042969 L 904.367188 412.238281 L 916.101562 406.371094 L 930.773438 403.4375 L 933.707031 401.96875 L 948.375 400.503906 L 955.710938 397.570312 L 973.3125 393.167969 L 989.449219 391.699219 L 989.449219 388.765625 L 1012.921875 381.433594 L 1027.589844 378.496094 L 1040.792969 374.097656 L 1056.929688 369.695312 L 1061.332031 366.761719 L 1092.136719 363.828125 L 1115.609375 357.960938 L 1120.007812 355.023438 Z M 1136.144531 352.089844 " fill-opacity="1" fill-rule="nonzero"/><path fill="#548f89" d="M 388.003906 171.644531 L 1099.472656 171.644531 L 1140.546875 173.113281 L 1153.75 178.980469 L 1172.820312 183.382812 L 1174.285156 189.25 L 1187.488281 193.652344 L 1191.890625 196.585938 L 1205.089844 200.988281 L 1216.828125 206.855469 L 1225.628906 212.722656 L 1237.363281 218.589844 L 1262.300781 239.128906 L 1274.039062 252.332031 L 1278.4375 259.667969 L 1285.773438 268.46875 L 1290.175781 278.738281 L 1301.910156 297.8125 L 1306.308594 308.082031 L 1306.308594 312.480469 L 1310.710938 313.949219 L 1310.710938 318.347656 L 1315.113281 319.816406 L 1316.578125 328.617188 L 1319.511719 328.617188 L 1323.914062 346.222656 L 1329.78125 363.828125 L 1331.25 387.300781 L 1332.714844 388.765625 L 1334.183594 404.90625 L 1334.183594 1125.21875 L 1329.78125 1150.160156 L 1323.914062 1166.296875 L 1316.578125 1186.835938 L 1312.179688 1191.234375 L 1306.308594 1205.90625 L 1297.507812 1220.578125 L 1287.238281 1232.3125 L 1272.570312 1252.851562 L 1250.566406 1274.855469 L 1230.03125 1290.992188 L 1221.226562 1296.863281 L 1208.023438 1307.132812 L 1200.691406 1311.53125 L 1191.890625 1314.464844 L 1181.621094 1317.402344 L 1169.882812 1321.800781 L 1155.214844 1327.671875 L 1127.34375 1332.070312 L 392.40625 1332.070312 L 371.867188 1330.605469 L 339.59375 1321.800781 L 323.457031 1315.933594 L 313.1875 1313 L 297.054688 1304.199219 L 286.785156 1299.796875 L 261.847656 1280.726562 L 251.578125 1273.390625 L 241.308594 1261.652344 L 229.574219 1248.449219 L 223.707031 1238.179688 L 217.839844 1230.84375 L 214.902344 1229.378906 L 214.902344 1224.976562 L 211.96875 1224.976562 L 209.035156 1217.640625 L 198.769531 1201.503906 L 191.433594 1180.964844 L 191.433594 1176.566406 L 188.5 1176.566406 L 185.566406 1161.894531 L 178.230469 1150.160156 L 173.828125 1123.753906 L 173.828125 388.765625 L 178.230469 360.894531 L 187.03125 330.085938 L 192.898438 315.414062 L 195.832031 306.613281 L 200.234375 297.8125 L 211.96875 283.140625 L 217.839844 271.402344 L 229.574219 256.734375 L 239.84375 246.464844 L 245.710938 239.128906 L 258.914062 228.859375 L 264.78125 222.992188 L 277.984375 214.191406 L 288.25 208.320312 L 291.183594 205.386719 L 302.921875 200.988281 L 307.320312 196.585938 L 326.390625 189.25 L 332.257812 186.316406 L 346.929688 183.382812 L 355.730469 180.449219 L 366 178.980469 L 367.464844 176.046875 L 377.734375 174.578125 Z M 383.601562 198.050781 L 366 199.519531 L 358.664062 203.921875 L 349.863281 206.855469 L 336.660156 211.253906 L 319.058594 218.589844 L 319.058594 221.523438 L 311.722656 222.992188 L 304.386719 227.394531 L 297.054688 230.328125 L 291.183594 237.664062 L 276.515625 249.398438 L 261.847656 262.601562 L 253.042969 271.402344 L 248.644531 280.207031 L 238.375 289.007812 L 231.039062 300.746094 L 228.105469 309.546875 L 225.171875 311.015625 L 219.304688 322.75 L 211.96875 340.355469 L 209.035156 350.625 L 203.167969 366.761719 L 200.234375 396.101562 L 200.234375 1100.28125 L 201.703125 1107.613281 L 203.167969 1131.085938 L 207.570312 1150.160156 L 211.96875 1156.027344 L 214.902344 1170.695312 L 217.839844 1178.03125 L 220.773438 1179.5 L 223.707031 1191.234375 L 232.507812 1207.371094 L 241.308594 1220.578125 L 250.109375 1226.445312 L 255.980469 1236.714844 L 280.917969 1261.652344 L 294.121094 1271.921875 L 305.855469 1276.324219 L 316.125 1283.660156 L 330.792969 1289.527344 L 332.257812 1290.992188 L 342.527344 1292.460938 L 348.394531 1295.394531 L 355.730469 1295.394531 L 355.730469 1298.328125 L 374.800781 1304.199219 L 385.070312 1305.664062 L 1115.609375 1305.664062 L 1140.546875 1301.261719 L 1161.082031 1295.394531 L 1164.015625 1292.460938 L 1181.621094 1288.058594 L 1184.554688 1283.660156 L 1191.890625 1282.191406 L 1191.890625 1279.257812 L 1199.222656 1277.789062 L 1216.828125 1268.988281 L 1235.898438 1252.851562 L 1249.101562 1239.648438 L 1257.902344 1232.3125 L 1265.234375 1223.511719 L 1271.105469 1207.371094 L 1274.039062 1205.90625 L 1278.4375 1194.167969 L 1285.773438 1183.902344 L 1285.773438 1179.5 L 1291.640625 1176.566406 L 1296.042969 1164.828125 L 1300.441406 1139.890625 L 1303.375 1134.019531 L 1306.308594 1113.484375 L 1306.308594 403.4375 L 1303.375 403.4375 L 1303.375 381.433594 L 1300.441406 357.960938 L 1293.109375 333.019531 L 1288.707031 324.21875 L 1281.371094 309.546875 L 1272.570312 296.34375 L 1269.636719 294.875 L 1268.171875 290.476562 L 1265.234375 290.476562 L 1262.300781 284.609375 L 1250.566406 269.9375 L 1243.230469 264.070312 L 1237.363281 256.734375 L 1222.695312 244.996094 L 1218.292969 244.996094 L 1215.359375 239.128906 L 1206.558594 234.726562 L 1199.222656 227.394531 L 1191.890625 221.523438 L 1177.21875 215.65625 L 1161.082031 208.320312 L 1142.011719 202.453125 L 1140.546875 200.988281 L 1115.609375 199.519531 L 1109.738281 198.050781 Z M 383.601562 198.050781 " fill-opacity="1" fill-rule="nonzero"/><path fill="#99c3be" d="M 297.054688 1271.921875 L 305.855469 1274.855469 L 316.125 1282.191406 L 330.792969 1288.058594 L 332.257812 1289.527344 L 342.527344 1290.992188 L 355.730469 1295.394531 L 355.730469 1298.328125 L 370.398438 1301.261719 L 385.070312 1304.199219 L 1115.609375 1304.199219 L 1140.546875 1299.796875 L 1161.082031 1293.929688 L 1164.015625 1290.992188 L 1181.621094 1286.59375 L 1184.554688 1282.191406 L 1191.890625 1282.191406 L 1191.890625 1279.257812 L 1206.558594 1273.390625 L 1209.492188 1274.855469 L 1199.222656 1282.191406 L 1184.554688 1288.058594 L 1178.6875 1292.460938 L 1158.148438 1298.328125 L 1147.878906 1302.730469 L 1136.144531 1305.664062 L 1127.34375 1305.664062 L 1127.34375 1308.597656 L 1117.074219 1310.066406 L 389.46875 1310.066406 L 370.398438 1307.132812 L 358.664062 1304.199219 L 358.664062 1301.261719 L 351.328125 1299.796875 L 330.792969 1292.460938 L 320.523438 1288.058594 L 310.253906 1283.660156 L 298.519531 1274.855469 Z M 297.054688 1271.921875 " fill-opacity="1" fill-rule="nonzero"/><path fill="#98beb6" d="M 1312.179688 318.347656 L 1315.113281 319.816406 L 1316.578125 328.617188 L 1319.511719 328.617188 L 1323.914062 346.222656 L 1329.78125 363.828125 L 1331.25 387.300781 L 1332.714844 388.765625 L 1334.183594 404.90625 L 1334.183594 1125.21875 L 1329.78125 1150.160156 L 1323.914062 1166.296875 L 1316.578125 1186.835938 L 1312.179688 1191.234375 L 1306.308594 1205.90625 L 1300.441406 1214.707031 L 1298.976562 1208.839844 L 1310.710938 1185.367188 L 1318.046875 1170.695312 L 1320.980469 1158.960938 L 1322.445312 1157.492188 L 1325.378906 1141.355469 L 1326.847656 1136.957031 L 1328.316406 1120.816406 L 1328.316406 404.90625 L 1326.847656 381.433594 L 1322.445312 352.089844 L 1319.511719 347.691406 L 1312.179688 321.285156 Z M 1312.179688 318.347656 " fill-opacity="1" fill-rule="nonzero"/><path fill="#b1d5ce" d="M 1265.234375 290.476562 L 1268.171875 290.476562 L 1269.636719 294.875 L 1276.972656 302.210938 L 1285.773438 316.882812 L 1288.707031 324.21875 L 1293.109375 333.019531 L 1297.507812 347.691406 L 1301.910156 363.828125 L 1303.375 381.433594 L 1303.375 403.4375 L 1306.308594 403.4375 L 1306.308594 1113.484375 L 1303.375 1134.019531 L 1300.441406 1139.890625 L 1296.042969 1164.828125 L 1290.175781 1178.03125 L 1287.238281 1179.5 L 1288.707031 1169.230469 L 1291.640625 1163.363281 L 1293.109375 1151.625 L 1296.042969 1147.222656 L 1300.441406 1113.484375 L 1301.910156 1095.878906 L 1301.910156 421.042969 L 1300.441406 387.300781 L 1296.042969 359.425781 L 1290.175781 341.820312 L 1285.773438 328.617188 L 1282.839844 324.21875 L 1282.839844 318.347656 L 1279.90625 318.347656 L 1275.503906 305.144531 L 1268.171875 297.8125 Z M 1265.234375 290.476562 " fill-opacity="1" fill-rule="nonzero"/><path fill="#add6ce" d="M 383.601562 198.050781 L 1109.738281 198.050781 L 1115.609375 199.519531 L 1140.546875 200.988281 L 1153.75 205.386719 L 1171.351562 212.722656 L 1165.484375 214.191406 L 1150.8125 208.320312 L 1131.746094 205.386719 L 1130.277344 203.921875 L 1098.003906 202.453125 L 370.398438 202.453125 L 370.398438 205.386719 L 355.730469 209.789062 L 348.394531 212.722656 L 333.726562 214.191406 L 338.128906 209.789062 L 349.863281 206.855469 L 363.066406 200.988281 L 366 199.519531 Z M 383.601562 198.050781 " fill-opacity="1" fill-rule="nonzero"/><path fill="#a7cdc7" d="M 320.523438 1314.464844 L 336.660156 1318.867188 L 354.265625 1324.734375 L 371.867188 1329.136719 L 392.40625 1330.605469 L 1127.34375 1330.605469 L 1142.011719 1327.671875 L 1153.75 1327.671875 L 1149.347656 1330.605469 L 1128.808594 1335.003906 L 1124.410156 1336.472656 L 392.40625 1335.003906 L 360.132812 1330.605469 L 342.527344 1326.203125 L 333.726562 1321.800781 L 321.992188 1317.402344 Z M 320.523438 1314.464844 " fill-opacity="1" fill-rule="nonzero"/><path fill="#c2e2da" d="M 192.898438 309.546875 L 194.367188 315.414062 L 184.097656 343.289062 L 178.230469 368.230469 L 175.296875 388.765625 L 175.296875 1131.085938 L 172.363281 1125.21875 L 170.894531 1120.816406 L 170.894531 385.832031 L 175.296875 357.960938 L 176.761719 355.023438 L 179.699219 355.023438 L 181.164062 340.355469 L 184.097656 328.617188 L 187.03125 328.617188 L 187.03125 319.816406 L 189.964844 319.816406 L 191.433594 312.480469 Z M 192.898438 309.546875 " fill-opacity="1" fill-rule="nonzero"/><path fill="#84b2ab" d="M 388.003906 171.644531 L 1099.472656 171.644531 L 1140.546875 173.113281 L 1153.75 178.980469 L 1172.820312 183.382812 L 1174.285156 187.78125 L 1166.949219 186.316406 L 1142.011719 180.449219 L 1127.34375 177.515625 L 1105.339844 176.046875 L 390.9375 176.046875 L 367.464844 177.515625 L 367.464844 176.046875 L 377.734375 174.578125 Z M 388.003906 171.644531 " fill-opacity="1" fill-rule="nonzero"/></svg>