<svg xmlns="http://www.w3.org/2000/svg" xmlns:xlink="http://www.w3.org/1999/xlink" width="2000" zoomAndPan="magnify" viewBox="0 0 1500 1499.999933" height="2000" preserveAspectRatio="xMidYMid meet" version="1.0"><path fill="#4d9794" d="M 0.00390625 0 L 1499.996094 0 L 1499.996094 1497 L 0.00390625 1497 Z M 0.00390625 0 " fill-opacity="1" fill-rule="nonzero"/><path fill="#f9f6ec" d="M 0.00390625 0 L 1499.996094 0 L 1499.996094 1497 L 0.00390625 1497 Z M 372.4375 115.832031 L 353.375 120.230469 L 319.652344 127.558594 L 285.925781 140.757812 L 263.933594 152.484375 L 252.203125 156.882812 L 230.207031 173.011719 L 214.078125 186.207031 L 205.28125 193.539062 L 205.28125 196.472656 L 199.417969 199.40625 L 196.484375 205.269531 L 190.621094 208.203125 L 174.488281 227.261719 L 165.691406 238.992188 L 161.292969 249.253906 L 155.429688 259.519531 L 151.03125 262.453125 L 146.632812 271.25 L 143.699219 281.511719 L 137.832031 293.242188 L 131.96875 307.902344 L 127.570312 318.167969 L 118.773438 369.484375 L 117.304688 387.078125 L 117.304688 1087.925781 L 118.773438 1128.980469 L 120.238281 1142.175781 L 124.636719 1159.773438 L 129.035156 1177.367188 L 137.832031 1203.757812 L 145.164062 1219.886719 L 149.5625 1230.148438 L 153.960938 1237.480469 L 158.359375 1247.746094 L 161.292969 1247.746094 L 164.226562 1255.074219 L 174.488281 1268.269531 L 178.890625 1275.601562 L 195.019531 1293.195312 L 205.28125 1304.925781 L 218.476562 1318.121094 L 230.207031 1326.917969 L 247.804688 1340.117188 L 262.464844 1347.445312 L 266.863281 1347.445312 L 266.863281 1350.378906 L 278.59375 1354.777344 L 299.121094 1365.039062 L 313.785156 1370.90625 L 324.050781 1373.839844 L 338.710938 1378.238281 L 366.570312 1382.636719 L 370.96875 1384.101562 L 1142.226562 1384.101562 L 1153.957031 1381.167969 L 1153.957031 1378.238281 L 1170.085938 1375.304688 L 1197.945312 1367.972656 L 1217.007812 1360.640625 L 1231.667969 1353.3125 L 1231.667969 1350.378906 L 1240.464844 1347.445312 L 1253.664062 1341.582031 L 1265.394531 1331.316406 L 1281.523438 1319.589844 L 1300.582031 1301.992188 L 1315.246094 1287.332031 L 1325.507812 1274.136719 L 1332.839844 1266.804688 L 1340.171875 1258.007812 L 1348.96875 1240.414062 L 1354.835938 1231.617188 L 1357.769531 1225.75 L 1357.769531 1221.351562 L 1360.699219 1221.351562 L 1363.632812 1206.691406 L 1369.496094 1194.960938 L 1373.898438 1184.695312 L 1378.296875 1171.5 L 1379.761719 1161.238281 L 1381.226562 1159.773438 L 1384.160156 1128.980469 L 1385.625 1090.859375 L 1385.625 390.011719 L 1382.695312 354.824219 L 1375.363281 318.167969 L 1366.566406 293.242188 L 1360.699219 282.976562 L 1357.769531 274.179688 L 1347.503906 253.652344 L 1340.171875 246.324219 L 1338.707031 240.457031 L 1335.773438 238.992188 L 1332.839844 231.660156 L 1319.644531 215.53125 L 1291.785156 187.675781 L 1271.257812 171.546875 L 1253.664062 159.816406 L 1246.332031 155.417969 L 1243.398438 155.417969 L 1243.398438 152.484375 L 1233.136719 149.554688 L 1231.667969 145.15625 L 1225.804688 142.222656 L 1214.074219 140.757812 L 1212.605469 136.359375 L 1195.011719 131.957031 L 1189.148438 129.027344 L 1156.890625 121.695312 L 1143.691406 118.761719 L 1130.496094 118.761719 L 1130.496094 115.832031 Z M 372.4375 115.832031 " fill-opacity="1" fill-rule="nonzero"/><path fill="#f7f7ec" d="M 1175.949219 282.976562 L 1181.816406 282.976562 L 1181.816406 296.175781 L 1175.949219 313.769531 L 1170.085938 350.425781 L 1165.6875 372.417969 L 1161.289062 390.011719 L 1156.890625 422.269531 L 1152.492188 441.328125 L 1149.558594 453.058594 L 1148.089844 467.722656 L 1143.691406 482.382812 L 1140.761719 502.910156 L 1139.292969 510.242188 L 1136.359375 511.707031 L 1133.429688 530.769531 L 1130.496094 554.226562 L 1129.03125 557.160156 L 1123.164062 555.691406 L 1096.773438 529.300781 L 1085.042969 519.039062 L 1065.980469 499.976562 L 1058.648438 499.976562 L 1058.648438 502.910156 L 1033.722656 521.96875 L 1008.796875 539.566406 L 998.53125 545.429688 L 983.871094 551.292969 L 958.941406 557.160156 L 910.554688 560.09375 L 617.304688 561.558594 L 587.976562 567.421875 L 579.179688 573.289062 L 565.984375 579.152344 L 557.1875 583.550781 L 539.589844 599.679688 L 532.257812 608.476562 L 527.859375 618.742188 L 521.996094 624.605469 L 514.664062 646.597656 L 510.265625 664.191406 L 510.265625 714.042969 L 513.199219 714.042969 L 517.597656 728.707031 L 529.328125 752.164062 L 543.988281 771.226562 L 554.253906 782.957031 L 561.585938 788.820312 L 571.847656 793.21875 L 571.847656 796.152344 L 587.976562 800.550781 L 601.175781 803.484375 L 623.167969 804.949219 L 623.167969 802.015625 L 643.695312 794.683594 L 656.890625 785.886719 L 667.15625 775.625 L 675.953125 763.894531 L 678.886719 762.429688 L 686.21875 749.234375 L 703.8125 728.707031 L 714.078125 716.976562 L 722.875 711.113281 L 730.207031 703.78125 L 740.46875 694.984375 L 750.734375 690.585938 L 756.597656 684.71875 L 759.53125 683.253906 L 768.328125 683.253906 L 768.328125 680.320312 L 780.058594 675.921875 L 781.523438 672.988281 L 812.316406 664.191406 L 875.367188 664.191406 L 882.695312 667.125 L 906.15625 670.058594 L 929.617188 678.855469 L 932.550781 681.789062 L 939.882812 684.71875 L 953.078125 693.515625 L 963.34375 697.914062 L 975.070312 708.179688 L 991.199219 721.375 L 1008.796875 737.503906 L 1021.992188 753.632812 L 1024.925781 760.960938 L 1032.257812 768.292969 L 1035.1875 778.558594 L 1038.121094 778.558594 L 1041.054688 782.957031 L 1041.054688 788.820312 L 1043.988281 788.820312 L 1046.917969 796.152344 L 1052.785156 809.347656 L 1055.714844 813.746094 L 1060.117188 829.875 L 1061.582031 831.339844 L 1064.515625 847.46875 L 1068.914062 863.597656 L 1070.378906 873.859375 L 1070.378906 920.78125 L 1064.515625 960.367188 L 1055.714844 986.757812 L 1048.386719 1004.351562 L 1039.585938 1021.949219 L 1029.324219 1039.542969 L 1013.195312 1061.535156 L 1000 1076.199219 L 988.269531 1086.460938 L 973.605469 1098.191406 L 966.273438 1105.523438 L 957.476562 1111.386719 L 953.078125 1111.386719 L 951.613281 1115.785156 L 935.484375 1121.648438 L 928.152344 1123.117188 L 928.152344 1126.046875 L 920.820312 1127.515625 L 920.820312 1130.449219 L 897.359375 1137.777344 L 882.695312 1142.175781 L 869.5 1143.644531 L 856.304688 1146.574219 L 391.496094 1146.574219 L 376.835938 1142.175781 L 376.835938 1139.246094 L 366.570312 1136.3125 L 351.910156 1121.648438 L 346.042969 1109.921875 L 346.042969 1102.589844 L 343.109375 1102.589844 L 343.109375 1070.332031 L 348.976562 1060.070312 L 351.910156 1052.738281 L 357.773438 1045.40625 L 368.039062 1036.609375 L 373.902344 1036.609375 L 373.902344 1033.675781 L 378.300781 1032.210938 L 841.640625 1030.746094 L 859.238281 1027.8125 L 882.695312 1019.015625 L 885.628906 1019.015625 L 885.628906 1016.082031 L 903.226562 1005.820312 L 922.285156 986.757812 L 931.082031 976.496094 L 938.414062 964.765625 L 942.8125 950.105469 L 948.679688 935.441406 L 951.613281 935.441406 L 951.613281 920.78125 L 953.078125 914.914062 L 953.078125 876.792969 L 951.613281 867.996094 L 948.679688 867.996094 L 944.28125 848.933594 L 934.015625 831.339844 L 922.285156 815.210938 L 910.554688 804.949219 L 898.824219 794.683594 L 888.5625 790.285156 L 882.695312 785.886719 L 872.433594 784.421875 L 860.703125 780.023438 L 834.308594 780.023438 L 822.582031 781.488281 L 822.582031 784.421875 L 810.851562 788.820312 L 802.050781 794.683594 L 787.390625 807.882812 L 774.195312 825.476562 L 769.792969 835.738281 L 762.464844 843.070312 L 746.335938 862.132812 L 730.207031 878.257812 L 721.40625 885.589844 L 718.476562 885.589844 L 715.542969 891.457031 L 709.675781 891.457031 L 709.675781 894.386719 L 686.21875 906.117188 L 673.019531 911.980469 L 665.691406 914.914062 L 664.222656 916.378906 L 640.761719 919.3125 L 634.898438 920.78125 L 592.375 920.78125 L 557.1875 914.914062 L 539.589844 909.050781 L 532.257812 904.652344 L 517.597656 898.785156 L 514.664062 897.320312 L 514.664062 894.386719 L 504.398438 891.457031 L 495.601562 885.589844 L 495.601562 882.65625 L 489.738281 881.191406 L 475.074219 869.460938 L 453.082031 847.46875 L 441.351562 832.808594 L 429.621094 815.210938 L 429.621094 812.28125 L 423.753906 809.347656 L 416.425781 790.285156 L 414.957031 784.421875 L 410.558594 782.957031 L 406.160156 769.761719 L 403.226562 759.496094 L 400.296875 752.164062 L 394.429688 721.375 L 394.429688 652.464844 L 398.828125 620.207031 L 409.09375 589.417969 L 414.957031 579.152344 L 417.890625 579.152344 L 419.355469 573.289062 L 426.6875 558.625 L 431.085938 552.761719 L 435.484375 542.496094 L 448.683594 526.371094 L 457.480469 516.105469 L 469.210938 505.84375 L 480.941406 494.113281 L 501.46875 479.449219 L 508.800781 475.050781 L 520.527344 470.652344 L 532.257812 464.789062 L 533.726562 461.855469 L 546.921875 458.921875 L 546.921875 455.992188 L 563.050781 453.058594 L 574.78125 448.660156 L 579.179688 447.195312 L 604.105469 445.726562 L 931.082031 445.726562 L 931.082031 442.796875 L 951.613281 436.929688 L 967.742188 425.199219 L 976.539062 416.402344 L 975.070312 407.605469 L 925.21875 357.753906 L 922.285156 354.824219 L 923.753906 348.957031 L 936.949219 344.558594 L 954.542969 341.625 L 957.476562 340.160156 L 969.207031 340.160156 L 969.207031 337.226562 L 989.734375 331.363281 L 1004.398438 329.898438 L 1017.59375 326.964844 L 1017.59375 324.03125 L 1070.378906 310.835938 L 1083.574219 306.4375 L 1093.839844 304.972656 L 1104.101562 302.039062 L 1118.765625 297.640625 L 1134.894531 294.707031 L 1148.089844 290.308594 L 1161.289062 287.378906 L 1171.550781 284.445312 Z M 1175.949219 282.976562 " fill-opacity="1" fill-rule="nonzero"/><path fill="#95bbb6" d="M 372.4375 115.832031 L 1130.496094 115.832031 L 1130.496094 118.761719 L 1143.691406 118.761719 L 1143.691406 120.230469 L 356.308594 120.230469 L 356.308594 118.761719 Z M 372.4375 115.832031 " fill-opacity="1" fill-rule="nonzero"/></svg>