<svg xmlns="http://www.w3.org/2000/svg" xmlns:xlink="http://www.w3.org/1999/xlink" width="2000" zoomAndPan="magnify" viewBox="0 0 1500 1499.999933" height="2000" preserveAspectRatio="xMidYMid meet" version="1.0"><rect x="-150" width="1800" fill="#155059" y="-149.999993" height="1799.99992" fill-opacity="1"/><path fill="#f8f5eb" d="M -224.421875 -224.421875 L 1731.578125 -224.421875 L 1731.578125 1731.578125 L -224.421875 1731.578125 Z M 2.886719 0.976562 L 0.976562 2.886719 L 0.976562 1508.089844 L 2.886719 1511.910156 L 1510 1511.910156 L 1511.910156 1510 L 1511.910156 2.886719 L 1510 0.976562 Z M 2.886719 0.976562 " fill-opacity="1" fill-rule="nonzero"/><path fill="#f7faf8" d="M 1254.039062 234.015625 L 1263.589844 234.015625 L 1263.589844 251.207031 L 1259.769531 262.667969 L 1255.949219 287.5 L 1254.039062 291.320312 L 1250.21875 316.152344 L 1236.847656 377.277344 L 1227.296875 425.03125 L 1221.566406 451.773438 L 1219.65625 457.503906 L 1215.835938 488.066406 L 1208.195312 526.269531 L 1204.375 554.921875 L 1202.464844 558.742188 L 1192.914062 558.742188 L 1175.722656 537.730469 L 1173.8125 526.269531 L 1166.171875 524.359375 L 1135.609375 491.886719 L 1129.878906 488.066406 L 1129.878906 484.246094 L 1118.417969 482.335938 L 1114.597656 489.976562 L 1099.316406 505.257812 L 1093.585938 509.078125 L 1087.855469 509.078125 L 1087.855469 514.808594 L 1070.664062 524.359375 L 1049.652344 533.910156 L 1040.101562 535.820312 L 1038.191406 541.550781 L 1030.550781 541.550781 L 1030.550781 545.371094 L 1007.628906 554.921875 L 984.707031 556.832031 L 984.707031 560.652344 L 568.292969 562.5625 L 568.292969 566.382812 L 553.011719 566.382812 L 553.011719 570.203125 L 535.820312 575.933594 L 516.71875 587.394531 L 493.796875 608.40625 L 480.425781 625.597656 L 468.964844 646.609375 L 463.234375 667.621094 L 461.324219 682.902344 L 461.324219 732.566406 L 465.144531 747.847656 L 467.054688 751.667969 L 467.054688 766.949219 L 470.875 766.949219 L 472.785156 778.410156 L 476.605469 778.410156 L 478.515625 789.871094 L 484.246094 791.78125 L 495.707031 808.972656 L 516.71875 828.074219 L 518.628906 831.894531 L 533.910156 839.535156 L 535.820312 843.355469 L 545.371094 847.175781 L 547.28125 849.085938 L 602.675781 849.085938 L 612.226562 845.265625 L 617.957031 845.265625 L 617.957031 841.445312 L 635.148438 829.984375 L 654.25 808.972656 L 669.53125 789.871094 L 686.722656 768.859375 L 715.375 740.207031 L 719.195312 732.566406 L 724.925781 730.65625 L 730.65625 723.015625 L 742.117188 719.195312 L 757.398438 705.824219 L 772.679688 700.09375 L 786.050781 696.273438 L 805.152344 694.363281 L 814.703125 690.542969 L 828.074219 690.542969 L 828.074219 686.722656 L 894.929688 686.722656 L 946.503906 696.273438 L 961.785156 703.914062 L 971.335938 709.644531 L 990.4375 719.195312 L 999.988281 724.925781 L 999.988281 728.746094 L 1007.628906 730.65625 L 1019.089844 736.386719 L 1032.460938 747.847656 L 1043.921875 761.21875 L 1063.023438 780.320312 L 1066.84375 789.871094 L 1080.214844 805.152344 L 1091.675781 818.523438 L 1101.226562 835.714844 L 1105.046875 849.085938 L 1108.867188 850.996094 L 1114.597656 868.1875 L 1118.417969 883.46875 L 1124.148438 894.929688 L 1126.058594 915.941406 L 1129.878906 935.042969 L 1129.878906 1013.359375 L 1122.238281 1043.921875 L 1116.507812 1061.113281 L 1114.597656 1063.023438 L 1112.6875 1080.214844 L 1108.867188 1080.214844 L 1108.867188 1089.765625 L 1105.046875 1093.585938 L 1103.136719 1103.136719 L 1099.316406 1103.136719 L 1097.40625 1112.6875 L 1093.585938 1114.597656 L 1082.125 1135.609375 L 1059.203125 1166.171875 L 1036.28125 1191.003906 L 1021 1204.375 L 998.078125 1221.566406 L 986.617188 1227.296875 L 975.15625 1234.9375 L 948.414062 1242.578125 L 938.863281 1248.308594 L 929.3125 1252.128906 L 921.671875 1255.949219 L 891.109375 1259.769531 L 889.199219 1261.679688 L 875.828125 1263.589844 L 319.972656 1263.589844 L 295.140625 1255.949219 L 285.589844 1250.21875 L 285.589844 1246.398438 L 277.949219 1242.578125 L 264.578125 1227.296875 L 256.9375 1206.285156 L 256.9375 1177.632812 L 264.578125 1150.890625 L 289.410156 1129.878906 L 302.78125 1126.058594 L 342.894531 1124.148438 L 870.097656 1122.238281 L 889.199219 1118.417969 L 900.660156 1112.6875 L 904.480469 1108.867188 L 914.03125 1105.046875 L 931.222656 1089.765625 L 946.503906 1076.394531 L 952.234375 1068.753906 L 957.964844 1068.753906 L 961.785156 1061.113281 L 973.246094 1043.921875 L 977.066406 1030.550781 L 984.707031 1013.359375 L 988.527344 990.4375 L 988.527344 946.503906 L 984.707031 927.402344 L 984.707031 921.671875 L 980.886719 921.671875 L 971.335938 898.75 L 963.695312 883.46875 L 940.773438 858.636719 L 931.222656 852.90625 L 929.3125 849.085938 L 917.851562 843.355469 L 917.851562 839.535156 L 900.660156 833.804688 L 891.109375 829.984375 L 877.738281 828.074219 L 845.265625 828.074219 L 828.074219 833.804688 L 820.433594 833.804688 L 818.523438 839.535156 L 808.972656 845.265625 L 801.332031 852.90625 L 797.511719 852.90625 L 795.601562 858.636719 L 791.78125 858.636719 L 789.871094 864.367188 L 786.050781 864.367188 L 782.230469 872.007812 L 766.949219 891.109375 L 747.847656 915.941406 L 724.925781 940.773438 L 721.105469 940.773438 L 719.195312 946.503906 L 702.003906 959.875 L 684.8125 967.515625 L 677.171875 973.246094 L 656.160156 978.976562 L 652.339844 984.707031 L 627.507812 992.347656 L 610.316406 994.257812 L 549.191406 994.257812 L 530.089844 990.4375 L 528.179688 986.617188 L 499.527344 980.886719 L 484.246094 973.246094 L 482.335938 969.425781 L 472.785156 965.605469 L 459.414062 961.785156 L 459.414062 957.964844 L 449.863281 956.054688 L 426.941406 940.773438 L 402.109375 921.671875 L 396.378906 912.121094 L 377.277344 894.929688 L 373.457031 885.378906 L 361.996094 872.007812 L 350.535156 850.996094 L 344.804688 849.085938 L 331.433594 822.34375 L 325.703125 808.972656 L 323.792969 793.691406 L 319.972656 782.230469 L 319.972656 776.5 L 316.152344 776.5 L 312.332031 759.308594 L 310.421875 745.9375 L 310.421875 677.171875 L 316.152344 640.878906 L 321.882812 623.6875 L 325.703125 619.867188 L 333.34375 591.214844 L 340.984375 574.023438 L 348.625 566.382812 L 354.355469 551.101562 L 358.175781 549.191406 L 361.996094 539.640625 L 371.546875 528.179688 L 386.828125 514.808594 L 405.929688 495.707031 L 421.210938 482.335938 L 440.3125 467.054688 L 451.773438 461.324219 L 468.964844 449.863281 L 484.246094 444.132812 L 489.976562 444.132812 L 489.976562 440.3125 L 509.078125 436.492188 L 510.988281 434.582031 L 528.179688 432.671875 L 537.730469 428.851562 L 560.652344 423.121094 L 967.515625 421.210938 L 980.886719 417.390625 L 999.988281 409.75 L 1011.449219 400.199219 L 1017.179688 388.738281 L 1017.179688 377.277344 L 1015.269531 371.546875 L 1007.628906 369.636719 L 1001.898438 363.90625 L 992.347656 358.175781 L 969.425781 335.253906 L 956.054688 327.613281 L 950.324219 321.882812 L 952.234375 312.332031 L 954.144531 310.421875 L 975.15625 308.511719 L 994.257812 302.78125 L 1005.71875 298.960938 L 1032.460938 291.320312 L 1034.371094 289.410156 L 1055.382812 285.589844 L 1080.214844 277.949219 L 1099.316406 274.128906 L 1120.328125 266.488281 L 1137.519531 262.667969 L 1162.351562 255.027344 L 1185.273438 251.207031 L 1206.285156 249.296875 L 1212.015625 245.476562 L 1227.296875 241.65625 L 1252.128906 235.925781 Z M 1254.039062 234.015625 " fill-opacity="1" fill-rule="nonzero"/><path fill="#698889" d="M 2.886719 0.976562 L 1510 0.976562 L 1511.910156 2.886719 L 1511.910156 1510 L 1510 1511.910156 L 2.886719 1511.910156 L 0.976562 1508.089844 L 0.976562 2.886719 Z M 6.707031 6.707031 L 6.707031 1500.449219 L 10.527344 1504.269531 L 10.527344 1506.179688 L 1496.628906 1506.179688 L 1506.179688 1500.449219 L 1506.179688 10.527344 L 1500.449219 12.4375 L 1500.449219 6.707031 Z M 6.707031 6.707031 " fill-opacity="1" fill-rule="nonzero"/><path fill="#365b5e" d="M 4.796875 27.71875 L 6.707031 27.71875 L 6.707031 1500.449219 L 12.4375 1502.359375 L 12.4375 1504.269531 L 1496.628906 1504.269531 L 1500.449219 1500.449219 L 1506.179688 1500.449219 L 1506.179688 447.953125 L 1508.089844 447.953125 L 1508.089844 1510 L 4.796875 1510 Z M 4.796875 27.71875 " fill-opacity="1" fill-rule="nonzero"/><path fill="#0c373c" d="M 6.707031 6.707031 L 12.4375 6.707031 L 12.4375 1166.171875 L 10.527344 1166.171875 L 8.617188 1154.710938 L 6.707031 1154.710938 Z M 6.707031 6.707031 " fill-opacity="1" fill-rule="nonzero"/></svg>